<svg xmlns="http://www.w3.org/2000/svg" version="1.1" xmlns:xlink="http://www.w3.org/1999/xlink" xmlns:svgjs="http://svgjs.dev/svgjs" viewBox="0 0 800 800"><defs><linearGradient x1="50%" y1="0%" x2="50%" y2="100%" id="ffflurry-grad" gradientTransform="rotate(270)"><stop stop-color="hsl(238, 82%, 13%)" stop-opacity="1" offset="0%"></stop><stop stop-color="hsl(1.4, 100%, 67%)" stop-opacity="1" offset="45%"></stop><stop stop-color="hsl(167, 52%, 78%)" stop-opacity="1" offset="100%"></stop></linearGradient></defs><rect width="100%" height="100%" fill="hsl(238, 82%, 13%)"></rect><g fill="url(#ffflurry-grad)"><rect width="445" height="3" x="-134.5" y="743.5" rx="1.5" transform="rotate(45, 88, 745)" opacity="0.46"></rect><rect width="133" height="3" x="219.5" y="660.5" rx="1.5" transform="rotate(45, 286, 662)" opacity="0.18"></rect><rect width="525" height="3" x="382.5" y="509.5" rx="1.5" transform="rotate(45, 645, 511)" opacity="0.83"></rect><rect width="594" height="3" x="398" y="365.5" rx="1.5" transform="rotate(45, 695, 367)" opacity="0.08"></rect><rect width="495" height="3" x="-52.5" y="126.5" rx="1.5" transform="rotate(45, 195, 128)" opacity="0.81"></rect><rect width="47" height="3" x="80.5" y="58.5" rx="1.5" transform="rotate(45, 104, 60)" opacity="0.45"></rect><rect width="130" height="3" x="183" y="385.5" rx="1.5" transform="rotate(45, 248, 387)" opacity="0.38"></rect><rect width="515" height="3" x="213.5" y="261.5" rx="1.5" transform="rotate(45, 471, 263)" opacity="0.30"></rect><rect width="596" height="3" x="152" y="149.5" rx="1.5" transform="rotate(45, 450, 151)" opacity="0.65"></rect><rect width="291" height="3" x="547.5" y="156.5" rx="1.5" transform="rotate(45, 693, 158)" opacity="0.64"></rect><rect width="189" height="3" x="497.5" y="622.5" rx="1.5" transform="rotate(45, 592, 624)" opacity="0.32"></rect><rect width="157" height="3" x="690.5" y="671.5" rx="1.5" transform="rotate(45, 769, 673)" opacity="0.28"></rect><rect width="77" height="3" x="228.5" y="62.5" rx="1.5" transform="rotate(45, 267, 64)" opacity="0.88"></rect><rect width="228" height="3" x="611" y="489.5" rx="1.5" transform="rotate(45, 725, 491)" opacity="0.64"></rect><rect width="478" height="3" x="250" y="468.5" rx="1.5" transform="rotate(45, 489, 470)" opacity="0.91"></rect><rect width="439" height="3" x="412.5" y="33.5" rx="1.5" transform="rotate(45, 632, 35)" opacity="0.33"></rect><rect width="461" height="3" x="-38.5" y="669.5" rx="1.5" transform="rotate(45, 192, 671)" opacity="0.59"></rect><rect width="552" height="3" x="65" y="476.5" rx="1.5" transform="rotate(45, 341, 478)" opacity="0.11"></rect><rect width="501" height="3" x="515.5" y="299.5" rx="1.5" transform="rotate(45, 766, 301)" opacity="0.81"></rect><rect width="304" height="3" x="9" y="30.5" rx="1.5" transform="rotate(45, 161, 32)" opacity="0.48"></rect><rect width="197" height="3" x="630.5" y="31.5" rx="1.5" transform="rotate(45, 729, 33)" opacity="0.97"></rect><rect width="69" height="3" x="103.5" y="199.5" rx="1.5" transform="rotate(45, 138, 201)" opacity="0.77"></rect><rect width="244" height="3" x="530" y="768.5" rx="1.5" transform="rotate(45, 652, 770)" opacity="0.36"></rect><rect width="263" height="3" x="644.5" y="204.5" rx="1.5" transform="rotate(45, 776, 206)" opacity="0.20"></rect><rect width="194" height="3" x="524" y="393.5" rx="1.5" transform="rotate(45, 621, 395)" opacity="0.08"></rect><rect width="184" height="3" x="-55" y="82.5" rx="1.5" transform="rotate(45, 37, 84)" opacity="0.75"></rect><rect width="491" height="3" x="238.5" y="38.5" rx="1.5" transform="rotate(45, 484, 40)" opacity="0.57"></rect><rect width="116" height="3" x="254" y="19.5" rx="1.5" transform="rotate(45, 312, 21)" opacity="0.32"></rect><rect width="49" height="3" x="410.5" y="740.5" rx="1.5" transform="rotate(45, 435, 742)" opacity="0.73"></rect><rect width="260" height="3" x="450" y="536.5" rx="1.5" transform="rotate(45, 580, 538)" opacity="0.90"></rect><rect width="127" height="3" x="6.5" y="338.5" rx="1.5" transform="rotate(45, 70, 340)" opacity="0.38"></rect><rect width="271" height="3" x="436.5" y="774.5" rx="1.5" transform="rotate(45, 572, 776)" opacity="0.88"></rect><rect width="283" height="3" x="460.5" y="729.5" rx="1.5" transform="rotate(45, 602, 731)" opacity="0.67"></rect><rect width="205" height="3" x="382.5" y="380.5" rx="1.5" transform="rotate(45, 485, 382)" opacity="0.34"></rect><rect width="245" height="3" x="439.5" y="427.5" rx="1.5" transform="rotate(45, 562, 429)" opacity="0.85"></rect><rect width="412" height="3" x="403" y="301.5" rx="1.5" transform="rotate(45, 609, 303)" opacity="0.73"></rect><rect width="123" height="3" x="-24.5" y="19.5" rx="1.5" transform="rotate(45, 37, 21)" opacity="0.52"></rect><rect width="356" height="3" x="534" y="267.5" rx="1.5" transform="rotate(45, 712, 269)" opacity="0.41"></rect><rect width="440" height="3" x="122" y="604.5" rx="1.5" transform="rotate(45, 342, 606)" opacity="0.92"></rect><rect width="302" height="3" x="374" y="213.5" rx="1.5" transform="rotate(45, 525, 215)" opacity="0.78"></rect><rect width="226" height="3" x="154" y="749.5" rx="1.5" transform="rotate(45, 267, 751)" opacity="0.13"></rect><rect width="388" height="3" x="224" y="588.5" rx="1.5" transform="rotate(45, 418, 590)" opacity="1.00"></rect><rect width="176" height="3" x="286" y="275.5" rx="1.5" transform="rotate(45, 374, 277)" opacity="0.91"></rect><rect width="359" height="3" x="405.5" y="196.5" rx="1.5" transform="rotate(45, 585, 198)" opacity="0.14"></rect><rect width="39" height="3" x="624.5" y="115.5" rx="1.5" transform="rotate(45, 644, 117)" opacity="0.20"></rect><rect width="82" height="3" x="717" y="564.5" rx="1.5" transform="rotate(45, 758, 566)" opacity="0.80"></rect><rect width="346" height="3" x="345" y="575.5" rx="1.5" transform="rotate(45, 518, 577)" opacity="0.98"></rect><rect width="69" height="3" x="626.5" y="608.5" rx="1.5" transform="rotate(45, 661, 610)" opacity="0.31"></rect><rect width="119" height="3" x="160.5" y="42.5" rx="1.5" transform="rotate(45, 220, 44)" opacity="0.42"></rect><rect width="180" height="3" x="240" y="193.5" rx="1.5" transform="rotate(45, 330, 195)" opacity="0.09"></rect><rect width="326" height="3" x="393" y="87.5" rx="1.5" transform="rotate(45, 556, 89)" opacity="0.61"></rect><rect width="164" height="3" x="-27" y="496.5" rx="1.5" transform="rotate(45, 55, 498)" opacity="0.35"></rect><rect width="392" height="3" x="166" y="755.5" rx="1.5" transform="rotate(45, 362, 757)" opacity="0.34"></rect><rect width="365" height="3" x="317.5" y="766.5" rx="1.5" transform="rotate(45, 500, 768)" opacity="0.49"></rect><rect width="344" height="3" x="-124" y="180.5" rx="1.5" transform="rotate(45, 48, 182)" opacity="0.19"></rect><rect width="266" height="3" x="257" y="67.5" rx="1.5" transform="rotate(45, 390, 69)" opacity="0.97"></rect><rect width="475" height="3" x="411.5" y="217.5" rx="1.5" transform="rotate(45, 649, 219)" opacity="0.91"></rect><rect width="214" height="3" x="534" y="689.5" rx="1.5" transform="rotate(45, 641, 691)" opacity="0.44"></rect><rect width="319" height="3" x="147.5" y="111.5" rx="1.5" transform="rotate(45, 307, 113)" opacity="0.96"></rect><rect width="299" height="3" x="600.5" y="126.5" rx="1.5" transform="rotate(45, 750, 128)" opacity="0.41"></rect><rect width="210" height="3" x="666" y="70.5" rx="1.5" transform="rotate(45, 771, 72)" opacity="0.78"></rect><rect width="421" height="3" x="331.5" y="708.5" rx="1.5" transform="rotate(45, 542, 710)" opacity="0.27"></rect><rect width="546" height="3" x="-96" y="465.5" rx="1.5" transform="rotate(45, 177, 467)" opacity="0.74"></rect><rect width="564" height="3" x="-37" y="562.5" rx="1.5" transform="rotate(45, 245, 564)" opacity="0.93"></rect><rect width="277" height="3" x="302.5" y="336.5" rx="1.5" transform="rotate(45, 441, 338)" opacity="0.50"></rect><rect width="283" height="3" x="569.5" y="641.5" rx="1.5" transform="rotate(45, 711, 643)" opacity="0.40"></rect><rect width="311" height="3" x="-70.5" y="617.5" rx="1.5" transform="rotate(45, 85, 619)" opacity="0.18"></rect><rect width="518" height="3" x="480" y="752.5" rx="1.5" transform="rotate(45, 739, 754)" opacity="0.92"></rect><rect width="295" height="3" x="606.5" y="430.5" rx="1.5" transform="rotate(45, 754, 432)" opacity="0.95"></rect><rect width="491" height="3" x="-58.5" y="275.5" rx="1.5" transform="rotate(45, 187, 277)" opacity="0.45"></rect><rect width="313" height="3" x="615.5" y="366.5" rx="1.5" transform="rotate(45, 772, 368)" opacity="0.62"></rect><rect width="224" height="3" x="158" y="276.5" rx="1.5" transform="rotate(45, 270, 278)" opacity="0.31"></rect><rect width="267" height="3" x="371.5" y="656.5" rx="1.5" transform="rotate(45, 505, 658)" opacity="0.26"></rect><rect width="346" height="3" x="265" y="520.5" rx="1.5" transform="rotate(45, 438, 522)" opacity="0.07"></rect><rect width="207" height="3" x="312.5" y="665.5" rx="1.5" transform="rotate(45, 416, 667)" opacity="0.41"></rect><rect width="327" height="3" x="190.5" y="368.5" rx="1.5" transform="rotate(45, 354, 370)" opacity="0.22"></rect><rect width="373" height="3" x="534.5" y="204.5" rx="1.5" transform="rotate(45, 721, 206)" opacity="0.53"></rect></g></svg>